#!OML:ASF \\sashay\E\Suitcase\Project 1\Capture day 1\Session 1\Male1.ASF
:FULLY-SPECIFIED
:DEGREES
261
root 0.907101 17.6882 -37.123 11.5756 -2.08119 1.15039
lowerback 16.2981 -4.1297 12.6313
upperback 6.05266 -2.92309 13.9436
thorax -2.37652 -1.49981 8.72279
lowerneck -7.25663 -11.3869 -5.9085
upperneck 30.5519 -15.0461 -1.03632
head 11.5174 -7.44623 -1.18494
rclavicle 1.27222e-014 6.36111e-015
rhumerus -14.0943 -9.68112 -59.5741
rradius 29.9312
rwrist 9.91627
rhand -32.4315 37.4313
rfingers 7.12502
rthumb -5.66535 7.52707
lclavicle 1.27222e-014 6.36111e-015
lhumerus -31.423 -10.0349 99.3546
lradius 50.534
lwrist 2.62682
lhand -0.689639 42.9058
lfingers 7.12502
lthumb 24.9297 71.2998
rfemur -23.6159 0.839261 18.6855
rtibia 28.0677
rfoot -15.8136 -5.93703
rtoes 11.9182
lfemur -22.8053 -2.03923 -20.7558
ltibia 26.6514
lfoot -15.0587 3.17133
ltoes 1.11808
262
root 0.902588 17.6793 -37.1209 11.572 -1.95016 1.06592
lowerback 16.357 -4.17898 12.7458
upperback 5.96309 -2.93636 13.9433
thorax -2.51124 -1.50709 8.67251
lowerneck -7.6398 -11.3751 -5.78845
upperneck 30.8466 -15.0207 -1.143
head 11.6868 -7.42384 -1.27742
rclavicle -6.04305e-014 -6.36111e-015
rhumerus -14.1583 -9.09305 -59.4961
rradius 29.9375
rwrist 9.07128
rhand -31.9559 36.6323
rfingers 7.12502
rthumb -5.20617 6.71627
lclavicle -6.04305e-014 -6.36111e-015
lhumerus -31.4657 -10.1736 99.4095
lradius 50.4281
lwrist 2.76831
lhand -0.827044 42.3887
lfingers 7.12502
lthumb 24.798 70.8009
rfemur -23.6203 0.980842 18.7536
rtibia 28.0834
rfoot -15.8061 -6.03427
rtoes 13.2413
lfemur -22.8741 -1.91742 -20.7024
ltibia 26.6438
lfoot -15.0498 3.3338
ltoes -2.63025
263
root 0.89901 17.6781 -37.117 11.5377 -1.84074 1.0144
lowerback 16.4061 -4.17344 12.8693
upperback 5.82157 -2.86973 13.9112
thorax -2.70606 -1.47533 8.56518
lowerneck -7.18539 -11.3518 -5.80219
upperneck 30.685 -15.0274 -1.04466
head 11.5438 -7.42762 -1.20123
rclavicle 4.77083e-014 0
rhumerus -14.4927 -8.41688 -59.4038
rradius 30.0203
rwrist 8.0728
rhand -31.2685 35.5272
rfingers 7.12502
rthumb -4.54237 5.59587
lclavicle 4.77083e-014 0
lhumerus -31.8023 -10.4514 99.5179
lradius 50.563
lwrist 2.82064
lhand -0.889028 42.7355
lfingers 7.12502
lthumb 24.7386 71.1558
rfemur -23.5572 0.725523 18.9211
rtibia 28.127
rfoot -15.7771 -6.07018
rtoes 10.8571
lfemur -22.8027 -1.98788 -20.6156
ltibia 26.6644
lfoot -15.0376 3.2867
ltoes -2.35878
264
root 0.892725 17.6746 -37.1108 11.4454 -1.83156 0.879459
lowerback 16.5045 -4.2102 12.9172
upperback 5.816 -2.88508 13.9432
thorax -2.7635 -1.48438 8.58962
lowerneck -6.8079 -11.2312 -5.90146
upperneck 30.2096 -14.8778 -0.87441
head 11.3045 -7.36907 -1.06085
rclavicle -6.04305e-014 -6.67916e-014
rhumerus -14.3898 -7.75365 -59.4182
rradius 30.0431
rwrist 6.52853
rhand -30.2084 35.1663
rfingers 7.12502
rthumb -3.51872 5.21563
lclavicle -6.04305e-014 -6.67916e-014
lhumerus -31.8401 -10.4605 99.5708
lradius 50.4972
lwrist 2.65332
lhand -1.57894 42.1627
lfingers 7.12502
lthumb 24.0772 70.6722
rfemur -23.4444 1.01871 18.9988
rtibia 28.1288
rfoot -15.9617 -6.06865
rtoes 13.7147
lfemur -22.688 -1.95699 -20.4386
ltibia 26.6873
lfoot -14.9898 3.26722
ltoes -4.60877
265
root 0.893847 17.6757 -37.1072 11.4313 -1.65035 0.89955
lowerback 16.5287 -4.24365 13.145
upperback 5.73811 -2.87167 13.8343
thorax -2.87969 -1.4749 8.34011
lowerneck -7.27219 -11.2458 -5.42117
upperneck 30.6099 -14.8664 -1.28303
head 11.4675 -7.34688 -1.32003
rclavicle -1.59028e-014 -4.13472e-014
rhumerus -14.422 -7.60316 -59.5351
rradius 30.102
rwrist 4.83017
rhand -28.3936 34.2063
rfingers 7.12502
rthumb -1.76601 4.23391
lclavicle -1.59028e-014 -4.13472e-014
lhumerus -31.7764 -10.7044 99.5548
lradius 50.4214
lwrist 2.59514
lhand -1.41232 42.3411
lfingers 7.12502
lthumb 24.2369 70.8293
rfemur -23.4006 0.625132 19.0652
rtibia 28.1819
rfoot -15.9996 -5.96967
rtoes 12.2395
lfemur -22.7086 -2.22098 -20.4329
ltibia 26.7048
lfoot -15.1056 3.39062
ltoes -2.052
